<?xml version="1.0" standalone="no"?>
<!DOCTYPE svg PUBLIC "-//W3C//DTD SVG 20010904//EN"
 "http://www.w3.org/TR/2001/REC-SVG-20010904/DTD/svg10.dtd">
<svg version="1.0" xmlns="http://www.w3.org/2000/svg"
 width="2048.000000pt" height="2048.000000pt" viewBox="0 0 2048.000000 2048.000000"
 preserveAspectRatio="xMidYMid meet">

<g transform="translate(0.000000,2048.000000) scale(0.100000,-0.100000)"
fill="#000000" stroke="none">
<path d="M8730 14400 c-228 -49 -469 -101 -535 -114 -519 -108 -891 -189 -950
-207 -86 -26 -192 -78 -270 -134 -70 -50 -187 -169 -234 -238 -48 -70 -116
-220 -143 -312 l-23 -80 -3 -1152 c-1 -634 0 -1153 2 -1153 3 0 155 32 338 70
183 39 470 100 638 135 535 112 872 185 881 191 5 3 9 16 9 29 0 40 46 60 157
68 11 1 19 6 15 11 -3 5 2 7 11 3 10 -4 16 -2 14 5 -1 7 7 13 18 14 11 1 44
12 74 23 29 11 63 21 75 23 11 2 24 7 27 12 4 5 20 9 37 10 17 0 28 4 26 7 -7
11 64 27 74 17 7 -7 10 -4 9 7 -1 10 6 19 16 20 9 2 15 0 12 -5 -3 -4 6 -3 19
3 13 7 22 16 19 21 -4 5 -1 6 5 2 6 -3 13 -2 16 2 3 5 17 8 31 7 14 -2 23 1
19 6 -3 5 -2 9 3 10 4 0 17 2 28 4 10 2 25 -1 31 -6 8 -7 15 -6 20 2 4 7 3 9
-3 6 -20 -12 -24 26 -6 44 24 24 235 109 270 109 15 0 93 23 173 51 115 40
156 50 198 48 30 -2 57 1 60 7 7 9 24 15 54 17 9 1 14 5 12 9 -5 8 4 10 43 11
12 0 20 3 18 8 -3 4 -1 10 4 13 5 3 10 77 10 164 2 241 -35 357 -150 473 -111
111 -282 166 -435 140 -60 -10 -563 -116 -2079 -437 -220 -46 -452 -96 -514
-109 -76 -17 -118 -22 -125 -15 -16 16 8 167 30 191 42 46 -27 29 1089 269
253 54 651 140 885 190 234 50 434 94 445 99 20 8 20 18 20 752 l0 744 -25 2
c-14 1 -212 -39 -440 -87z"/>
<path d="M16380 13484 c-144 -38 -158 -44 -209 -90 -84 -75 -95 -105 -99 -266
-2 -76 -2 -138 1 -138 3 0 78 16 168 35 90 19 170 35 177 35 9 0 12 -13 10
-42 l-3 -43 -105 -22 c-58 -13 -138 -30 -177 -39 l-73 -16 0 -89 c0 -66 3 -89
13 -89 28 0 282 62 308 75 38 20 76 69 89 113 6 21 10 154 10 315 l0 277 -27
-1 c-16 0 -53 -7 -83 -15z m50 -207 l0 -33 -142 -31 c-77 -17 -147 -29 -155
-26 -8 3 -13 16 -11 32 3 25 9 27 143 58 77 17 146 32 153 32 7 1 12 -12 12
-32z"/>
<path d="M10600 12736 l0 -684 57 -31 c31 -17 63 -31 70 -31 7 0 14 -6 14 -12
1 -7 5 1 9 17 4 17 8 86 9 154 1 118 7 152 121 693 66 314 120 572 120 574 0
2 -90 4 -200 4 l-200 0 0 -684z"/>
<path d="M13105 12850 c-104 -22 -500 -107 -880 -188 l-690 -147 -3 -415 c-2
-228 0 -438 3 -466 6 -49 8 -51 58 -77 29 -15 58 -27 65 -27 6 0 12 -4 12 -10
0 -5 4 -10 9 -10 5 0 66 -28 137 -62 71 -34 134 -61 141 -61 7 0 13 -4 13 -9
0 -4 6 -8 14 -8 8 0 17 -4 20 -9 8 -13 -4 -41 -18 -41 -9 0 -434 -168 -444
-176 -7 -4 -6 -113 0 -120 4 -3 130 20 280 51 431 90 1258 264 1804 381 342
73 510 105 529 100 15 -4 40 -20 56 -36 58 -57 25 -157 -59 -180 -21 -5 -424
-93 -897 -194 -1075 -231 -1186 -255 -1194 -260 -4 -3 -146 -34 -316 -71 -171
-36 -317 -68 -326 -71 -12 -3 -15 -17 -14 -57 2 -64 -6 -81 -42 -95 -15 -5
-54 -19 -85 -31 -176 -64 -257 -98 -379 -160 -42 -21 -82 -35 -88 -32 -6 4
-11 29 -10 57 1 27 1 77 0 112 -1 59 -2 62 -26 62 l-25 0 2 110 c2 112 -2 131
-24 112 -7 -6 -39 -20 -71 -32 l-57 -21 0 -850 c0 -475 4 -849 9 -849 13 0
542 117 651 144 52 13 154 36 225 50 72 15 209 45 305 66 96 21 195 41 220 45
38 6 684 144 1845 394 154 34 283 61 288 61 4 0 7 -114 7 -253 0 -202 3 -264
16 -307 40 -135 148 -225 283 -237 46 -4 125 11 446 86 336 78 816 185 2215
494 l285 63 0 964 c0 1067 2 1026 -65 1195 -163 407 -570 657 -1000 614 -58
-6 -592 -114 -717 -145 l-23 -6 0 -754 0 -753 -37 -10 c-77 -21 -295 -72 -538
-125 -137 -31 -260 -58 -272 -61 l-23 -5 0 435 0 435 -65 0 c-79 0 -140 26
-186 78 -57 65 -63 89 -70 312 -4 139 -12 229 -24 280 -83 355 -340 625 -695
730 -59 18 -108 23 -230 26 -150 4 -161 3 -345 -36z m4135 -1595 c0 -63 -2
-115 -4 -115 -2 0 -208 -43 -458 -95 -249 -53 -572 -121 -718 -151 -146 -30
-275 -58 -287 -61 -23 -5 -23 -4 -23 110 l0 115 53 11 c28 6 95 21 147 32 650
141 1250 268 1268 268 22 1 22 -1 22 -114z"/>
<path d="M9220 11686 c0 -2 8 -10 18 -17 15 -13 16 -12 3 4 -13 16 -21 21 -21
13z"/>
<path d="M9701 11423 c-1 -17 16 -25 25 -12 4 7 3 9 -4 5 -5 -3 -13 0 -15 6
-4 9 -6 10 -6 1z"/>
<path d="M9730 11396 c0 -2 7 -6 15 -10 8 -3 15 -1 15 4 0 6 -7 10 -15 10 -8
0 -15 -2 -15 -4z"/>
<path d="M9863 11317 c-3 -7 -3 -9 2 -5 4 4 14 3 21 -3 8 -7 14 -7 19 1 3 5 5
10 3 11 -27 6 -39 5 -45 -4z"/>
<path d="M9916 11301 c-4 -5 -2 -12 3 -15 5 -4 12 -2 15 3 4 5 2 12 -3 15 -5
4 -12 2 -15 -3z"/>
<path d="M9944 11279 c-4 -7 -3 -9 4 -5 5 3 13 0 15 -6 4 -9 6 -10 6 -1 1 17
-16 25 -25 12z"/>
<path d="M9980 11271 c0 -6 4 -13 10 -16 6 -3 7 1 4 9 -7 18 -14 21 -14 7z"/>
<path d="M8380 11160 c-34 -9 -530 -114 -1125 -240 -781 -165 -1310 -278
-1685 -360 -228 -50 -478 -104 -555 -121 -77 -16 -163 -41 -192 -55 -63 -30
-117 -88 -152 -163 l-26 -56 -3 -652 c-3 -597 -1 -653 13 -653 9 0 294 59 634
130 339 72 620 130 624 130 11 0 8 -308 -2 -315 -5 -3 -119 -28 -253 -55 -134
-28 -295 -61 -358 -75 -63 -13 -344 -72 -625 -130 -280 -58 -714 -148 -964
-200 -249 -52 -460 -95 -467 -95 -11 0 -14 17 -14 68 0 127 47 239 137 329 80
78 148 107 373 154 107 23 212 45 233 51 l37 9 0 750 0 751 -32 -7 c-187 -39
-407 -165 -561 -320 -130 -131 -249 -333 -297 -505 -48 -170 -50 -221 -50
-1253 0 -843 2 -978 16 -1044 40 -194 175 -340 359 -388 100 -26 185 -19 448
34 133 28 431 89 662 136 231 47 584 119 785 160 201 41 395 84 432 95 126 39
225 135 281 271 22 54 22 55 25 835 l3 782 77 20 c42 12 583 127 1202 257 619
130 1144 242 1167 248 40 10 42 13 37 42 -3 16 -7 42 -10 57 -2 15 -6 78 -9
140 -3 62 -7 122 -9 133 -2 11 -7 70 -10 130 -7 122 -18 287 -22 325 -1 14 -5
79 -9 145 -3 66 -8 136 -10 155 -4 41 -15 208 -19 295 -3 55 -5 60 -27 62 -13
1 -40 -3 -59 -7z"/>
<path d="M11109 10663 c-12 -16 -12 -17 2 -6 9 7 20 9 24 5 5 -4 5 -1 1 6 -9
16 -11 15 -27 -5z"/>
<path d="M9480 10440 c-6 -12 -9 -24 -7 -27 9 -8 48 18 44 30 -6 20 -25 19
-37 -3z"/>
<path d="M9525 10400 c3 -5 8 -10 11 -10 2 0 4 5 4 10 0 6 -5 10 -11 10 -5 0
-7 -4 -4 -10z"/>
<path d="M9587 10377 c-3 -7 1 -24 8 -37 l13 -25 7 27 c10 38 -15 69 -28 35z"/>
<path d="M9491 10228 c-1 -37 3 -48 14 -48 9 0 15 9 15 25 0 14 -4 25 -9 25
-5 0 -12 10 -14 23 -2 12 -5 1 -6 -25z"/>
<path d="M9565 10170 c3 -5 8 -10 11 -10 2 0 4 5 4 10 0 6 -5 10 -11 10 -5 0
-7 -4 -4 -10z"/>
<path d="M9613 10152 c-24 -4 -31 -26 -12 -38 12 -7 43 19 38 33 -2 4 -14 7
-26 5z"/>
<path d="M4816 6585 c-74 -109 -123 -172 -130 -168 -6 4 -84 58 -173 120 -88
62 -164 113 -167 113 -12 0 -278 -391 -273 -403 5 -14 377 -267 392 -267 6 0
64 77 129 170 l119 169 76 -53 c42 -29 120 -82 173 -119 l97 -68 39 53 c112
153 235 332 236 343 1 12 -377 285 -394 285 -3 0 -59 -79 -124 -175z"/>
</g>
</svg>
