<?xml version="1.0" standalone="no"?>
<!DOCTYPE svg PUBLIC "-//W3C//DTD SVG 20010904//EN"
 "http://www.w3.org/TR/2001/REC-SVG-20010904/DTD/svg10.dtd">
<svg version="1.0" xmlns="http://www.w3.org/2000/svg"
 width="2048.000000pt" height="2048.000000pt" viewBox="0 0 2048.000000 2048.000000"
 preserveAspectRatio="xMidYMid meet">

<g transform="translate(0.000000,2048.000000) scale(0.100000,-0.100000)"
fill="#000000" stroke="none">
<path d="M10603 12046 c0 -15 22 -15 34 0 4 5 4 6 -1 2 -5 -4 -14 -3 -21 2 -8
7 -12 5 -12 -4z"/>
<path d="M10646 12021 c9 -9 34 -9 34 -1 0 5 -9 8 -20 7 -10 -1 -17 -3 -14 -6z"/>
<path d="M10694 12008 c2 -7 7 -13 12 -13 5 0 15 -4 21 -8 9 -6 11 -3 7 8 -4
9 -12 14 -20 11 -7 -3 -15 -1 -18 5 -2 5 -3 4 -2 -3z"/>
<path d="M9940 11936 c0 -2 8 -10 18 -17 15 -13 16 -12 3 4 -13 16 -21 21 -21
13z"/>
<path d="M9158 11714 c6 -3 9 -11 5 -17 -4 -8 -1 -7 9 1 11 9 18 9 21 2 3 -6
4 -5 3 2 -1 7 -13 14 -27 15 -13 1 -18 0 -11 -3z"/>
<path d="M9214 11689 c1 -7 10 -13 19 -15 9 -1 15 2 11 7 -3 5 -9 7 -14 4 -4
-3 -11 0 -13 5 -3 6 -4 5 -3 -1z"/>
<path d="M9253 11656 c-3 -6 -3 -8 2 -4 4 4 13 3 20 -2 8 -7 12 -5 12 3 0 16
-25 18 -34 3z"/>
<path d="M9006 11648 c3 -4 11 -5 19 -1 21 7 19 12 -4 10 -11 0 -18 -5 -15 -9z"/>
<path d="M9300 11641 c0 -6 4 -13 10 -16 6 -3 7 1 4 9 -7 18 -14 21 -14 7z"/>
<path d="M8856 11598 c3 -5 10 -6 15 -3 13 9 11 12 -6 12 -8 0 -12 -4 -9 -9z"/>
<path d="M11591 11563 c-1 -17 16 -25 25 -12 4 7 3 9 -4 5 -5 -3 -13 0 -15 6
-4 9 -6 10 -6 1z"/>
<path d="M11625 11540 c-4 -6 3 -10 13 -10 11 0 25 -7 32 -15 7 -8 16 -12 22
-9 5 3 17 0 26 -8 15 -12 16 -11 3 5 -8 10 -20 16 -27 13 -8 -3 -17 1 -21 8
-11 17 -41 27 -48 16z"/>
<path d="M10720 11526 c0 -2 8 -10 18 -17 15 -13 16 -12 3 4 -13 16 -21 21
-21 13z"/>
<path d="M11761 11483 c-1 -7 8 -17 19 -23 11 -6 20 -8 20 -4 0 3 8 0 18 -7
15 -13 16 -12 3 4 -7 9 -22 17 -31 17 -10 0 -21 6 -23 13 -4 9 -6 9 -6 0z"/>
<path d="M9708 11410 c18 -11 36 -20 41 -20 5 0 14 -7 21 -15 7 -8 16 -12 21
-9 5 3 9 0 9 -5 0 -6 6 -10 13 -8 6 1 11 -2 10 -8 -1 -5 10 -11 23 -11 13 -1
21 2 18 7 -3 5 -10 9 -16 9 -5 0 -23 9 -39 21 -16 11 -29 17 -29 13 0 -4 -9 1
-20 11 -11 10 -20 15 -20 11 0 -4 -7 0 -16 8 -8 9 -23 16 -32 16 -11 0 -5 -8
16 -20z"/>
<path d="M12005 11344 c-6 -9 -37 -27 -70 -39 -82 -31 -389 -157 -394 -161 -2
-2 -6 -29 -8 -59 -2 -42 1 -57 11 -61 8 -3 125 18 259 47 l245 52 6 51 c11 96
7 141 -14 164 -25 26 -23 26 -35 6z"/>
<path d="M9876 11322 c-2 -4 4 -9 15 -9 11 -1 17 2 14 8 -7 11 -22 12 -29 1z"/>
<path d="M9920 11299 c0 -5 -5 -7 -12 -3 -7 4 -8 3 -4 -5 4 -6 12 -9 17 -5 5
3 16 0 24 -6 8 -7 15 -8 15 -4 0 5 -9 15 -20 22 -13 8 -20 8 -20 1z"/>
<path d="M9970 11273 c0 -4 11 -13 25 -20 14 -6 23 -7 19 -2 -8 13 -44 31 -44
22z"/>
<path d="M10600 10920 c0 -5 3 -9 8 -8 4 1 18 -4 32 -11 l25 -12 -25 20 c-28
23 -40 26 -40 11z"/>
<path d="M11985 10870 c-16 -4 -138 -31 -270 -59 -347 -75 -312 -61 -310 -123
2 -64 -6 -82 -42 -96 -15 -6 -83 -31 -149 -56 -132 -48 -173 -66 -308 -133
-68 -33 -91 -41 -97 -31 -5 7 -8 42 -7 78 1 141 0 148 -24 152 -22 3 -23 7
-26 119 l-3 116 -44 -22 c-24 -13 -57 -27 -74 -33 l-31 -11 0 -850 c0 -714 2
-851 14 -851 19 0 555 117 591 129 17 6 201 47 410 92 209 45 381 82 381 83 4
4 14 284 19 531 3 160 8 306 10 325 2 19 7 173 11 343 8 335 11 313 -51 297z"/>
<path d="M11119 10667 c7 -7 7 -16 -1 -26 -10 -13 -10 -14 2 -4 19 17 21 40 4
40 -10 0 -11 -4 -5 -10z"/>
<path d="M9479 10439 c-13 -25 -9 -30 19 -22 25 6 29 28 7 37 -9 3 -19 -3 -26
-15z"/>
<path d="M9525 10400 c3 -5 8 -10 11 -10 2 0 4 5 4 10 0 6 -5 10 -11 10 -5 0
-7 -4 -4 -10z"/>
<path d="M9592 10373 c-7 -13 -6 -24 3 -37 13 -17 14 -17 21 9 8 33 -10 55
-24 28z"/>
<path d="M9493 10215 c-2 -26 1 -35 12 -35 18 0 20 30 3 53 -11 15 -13 13 -15
-18z"/>
<path d="M9613 10152 c-24 -4 -31 -26 -12 -38 12 -7 43 19 38 33 -2 4 -14 7
-26 5z"/>
</g>
</svg>
